<?xml version="1.0" encoding="utf-8"?>
<!-- Generator: Adobe Illustrator 27.5.0, SVG Export Plug-In . SVG Version: 6.00 Build 0)  -->
<svg version="1.1" xmlns="http://www.w3.org/2000/svg" xmlns:xlink="http://www.w3.org/1999/xlink" x="0px" y="0px"
	 viewBox="0 0 500 500" style="enable-background:new 0 0 500 500;" xml:space="preserve">
<g id="BACKGROUND">
	<radialGradient id="SVGID_1_" cx="251.9995" cy="215.345" r="298.1756" gradientUnits="userSpaceOnUse">
		<stop  offset="0" style="stop-color:#3A4182"/>
		<stop  offset="0.0701" style="stop-color:#363B7A"/>
		<stop  offset="0.4841" style="stop-color:#1E1B4F"/>
		<stop  offset="0.8078" style="stop-color:#0F0735"/>
		<stop  offset="0.9994" style="stop-color:#0A002B"/>
	</radialGradient>
	
</g>
<g id="OBJECTS">
	<g>
		
			
		
			
	</g>
	<g>
		
			<linearGradient id="SVGID_00000149344455415933079980000000135211898319310739_" gradientUnits="userSpaceOnUse" x1="263.8842" y1="98.9998" x2="281.3034" y2="130.1434">
			<stop  offset="0" style="stop-color:#679ED6"/>
			<stop  offset="0.0387" style="stop-color:#6297CF"/>
			<stop  offset="0.368" style="stop-color:#3D6393"/>
			<stop  offset="0.6487" style="stop-color:#213D68"/>
			<stop  offset="0.867" style="stop-color:#10264E"/>
			<stop  offset="0.9961" style="stop-color:#0A1D44"/>
		</linearGradient>
		<circle style="fill:url(#SVGID_00000149344455415933079980000000135211898319310739_);" cx="268.504" cy="107.259" r="10.517"/>
		
			<linearGradient id="SVGID_00000124873228539599793930000017148277598633387422_" gradientUnits="userSpaceOnUse" x1="311.7147" y1="196.1896" x2="179.6661" y2="215.3725">
			<stop  offset="0" style="stop-color:#679ED6"/>
			<stop  offset="0.0387" style="stop-color:#6297CF"/>
			<stop  offset="0.368" style="stop-color:#3D6393"/>
			<stop  offset="0.6487" style="stop-color:#213D68"/>
			<stop  offset="0.867" style="stop-color:#10264E"/>
			<stop  offset="0.9961" style="stop-color:#0A1D44"/>
		</linearGradient>
		<path style="fill:url(#SVGID_00000124873228539599793930000017148277598633387422_);" d="M341.003,136.983
			c-1.021-12.798-11.621-23.052-24.443-23.693c-12.901-0.645-23.529,8.222-26.528,20.073c-0.292,1.155-0.466,2.323-0.556,3.457
			c-0.273,3.446-3.92,5.49-7.007,3.935c-10.896-5.489-23.26-8.485-36.354-8.219c-41.367,0.841-75.073,34.637-75.804,76.006
			c-0.775,43.878,34.96,79.602,78.843,78.809c41.301-0.747,75.056-34.362,75.969-75.66c0.321-14.527-3.37-28.161-10.031-39.891
			c-1.701-2.995,0.237-6.743,3.658-7.147c1.232-0.145,2.271-0.339,2.97-0.519C333.507,161.091,342.036,149.94,341.003,136.983z
			 M315.24,126.917c6.731,0,12.188,5.457,12.188,12.188c0,6.731-5.457,12.188-12.188,12.188c-6.731,0-12.188-5.457-12.188-12.188
			C303.052,132.374,308.508,126.917,315.24,126.917z M247.72,269.988c-33.163,0-60.047-26.884-60.047-60.047
			s26.884-60.047,60.047-60.047c33.163,0,60.047,26.884,60.047,60.047S280.883,269.988,247.72,269.988z"/>
		
			<linearGradient id="SVGID_00000075860919562737111960000008848179656936935859_" gradientUnits="userSpaceOnUse" x1="171.0106" y1="209.6064" x2="315.5796" y2="210.2189">
			<stop  offset="0" style="stop-color:#679ED6"/>
			<stop  offset="0.0387" style="stop-color:#6297CF"/>
			<stop  offset="0.368" style="stop-color:#3D6393"/>
			<stop  offset="0.6487" style="stop-color:#213D68"/>
			<stop  offset="0.867" style="stop-color:#10264E"/>
			<stop  offset="0.9961" style="stop-color:#0A1D44"/>
		</linearGradient>
		<path style="fill:url(#SVGID_00000075860919562737111960000008848179656936935859_);" d="M218.191,262.238
			c-18.22-10.31-30.517-29.867-30.517-52.296c0-4.145,0.42-8.193,1.22-12.102c0,0,1.525-8.095,5.376-15.288
			c22.154-41.373,66.228-48.98,66.228-48.98c-7.917-1.369-14.384-1.036-14.384-1.036c-41.367,0.841-75.073,34.637-75.804,76.006
			c-0.775,43.878,34.96,79.602,78.843,78.809c0,0-12.122-3.041-20.573-10.866C220.129,268.659,218.191,262.238,218.191,262.238z"/>
		
			<linearGradient id="SVGID_00000183248764268274270300000014670199445362405566_" gradientUnits="userSpaceOnUse" x1="276.7624" y1="115.3469" x2="264.3825" y2="103.2249">
			<stop  offset="0" style="stop-color:#679ED6"/>
			<stop  offset="0.0387" style="stop-color:#6297CF"/>
			<stop  offset="0.368" style="stop-color:#3D6393"/>
			<stop  offset="0.6487" style="stop-color:#213D68"/>
			<stop  offset="0.867" style="stop-color:#10264E"/>
			<stop  offset="0.9961" style="stop-color:#0A1D44"/>
		</linearGradient>
		<path style="fill:url(#SVGID_00000183248764268274270300000014670199445362405566_);" d="M275.778,99.674
			c0.183,0.777,0.29,1.584,0.29,2.417c0,5.808-4.709,10.517-10.517,10.517c-2.825,0-5.385-1.12-7.274-2.933
			c1.094,4.641,5.252,8.099,10.227,8.099c5.808,0,10.517-4.709,10.517-10.517C279.02,104.276,277.773,101.588,275.778,99.674z"/>
		
			<linearGradient id="SVGID_00000028293099324661839570000001701845018639982224_" gradientUnits="userSpaceOnUse" x1="331.9747" y1="153.7372" x2="323.9189" y2="112.0119">
			<stop  offset="0" style="stop-color:#679ED6"/>
			<stop  offset="0.0387" style="stop-color:#6297CF"/>
			<stop  offset="0.368" style="stop-color:#3D6393"/>
			<stop  offset="0.6487" style="stop-color:#213D68"/>
			<stop  offset="0.867" style="stop-color:#10264E"/>
			<stop  offset="0.9961" style="stop-color:#0A1D44"/>
		</linearGradient>
		<path style="fill:url(#SVGID_00000028293099324661839570000001701845018639982224_);" d="M321.719,164.134
			c11.788-3.043,20.318-14.194,19.284-27.151c0,0-0.818-4.666-9.186-8.064c-7.56-3.07-16.577-2.002-16.577-2.002
			c6.731,0,12.188,5.457,12.188,12.188c0,2.268-0.62,4.392-1.699,6.211c0,0,0.453,4.35-0.55,9.363
			C323.716,161.993,321.719,164.134,321.719,164.134z"/>
	</g>
</g>
<g id="DESIGNED_BY_FREEPIK">
	<g>
		<g id="XMLID_2_">
			<g id="XMLID_1043_">
				<path id="XMLID_1051_" style="fill:#F9FBFC;" d="M260.104,465.465c-0.432,0.443-0.803,0.931-1.108,1.453l-0.465-0.241
					c-0.067-0.298-0.349-0.503-0.659-0.466c-0.331,0.039-0.568,0.339-0.529,0.67c0.039,0.331,0.339,0.568,0.67,0.529
					c0.066-0.008,0.127-0.026,0.184-0.052l0.451,0.234c-0.251,0.554-0.433,1.139-0.539,1.744l0.747,0.132
					c0.23-1.306,0.85-2.507,1.792-3.473L260.104,465.465z"/>
				<path id="XMLID_1050_" style="fill:#F9FBFC;" d="M265.592,463.163c-0.171,0-0.341,0.006-0.51,0.017l-0.074-0.626
					c0.188-0.149,0.296-0.389,0.266-0.645c-0.046-0.393-0.402-0.674-0.795-0.628c-0.393,0.046-0.674,0.402-0.628,0.795
					c0.03,0.254,0.189,0.461,0.404,0.564l0.074,0.624c-0.714,0.116-1.403,0.332-2.06,0.646l0.327,0.684
					c0.934-0.447,1.942-0.673,2.995-0.673c0.496,0,0.993,0.053,1.475,0.158l0.161-0.741
					C266.692,463.222,266.142,463.163,265.592,463.163z"/>
				<path id="XMLID_1049_" style="fill:#F9FBFC;" d="M272.194,465.711c0.331-0.04,0.566-0.341,0.526-0.672
					c-0.04-0.331-0.341-0.566-0.672-0.526c-0.309,0.038-0.535,0.304-0.53,0.609l-0.416,0.363c-0.418-0.43-0.889-0.813-1.408-1.139
					l-0.404,0.641c1.134,0.715,2.021,1.726,2.563,2.925l0.691-0.313c-0.251-0.554-0.568-1.072-0.942-1.545l0.402-0.351
					C272.065,465.716,272.129,465.719,272.194,465.711z"/>
				<path id="XMLID_1048_" style="fill:#F9FBFC;" d="M265.044,473.372c-0.386,0.023-0.775,0.035-1.157,0.035
					c-0.88,0-1.733-0.061-2.478-0.179c-0.39-0.062-0.846-0.155-1.27-0.292c1.046,1.861,3.069,3.125,5.388,3.125
					c2.855,0,5.262-1.916,5.95-4.504c-0.682,0.449-1.505,0.825-2.459,1.123C267.839,473.047,266.463,473.286,265.044,473.372z"/>
				<path id="XMLID_1044_" style="fill:#F9FBFC;" d="M265.592,464.68c-3.352,0-6.08,2.666-6.08,5.943
					c0,0.426,0.046,0.849,0.137,1.261c0.673,0.483,2.706,0.89,5.348,0.731c2.879-0.173,5.297-0.957,6.672-2.159
					c-0.006-0.195-0.021-0.39-0.045-0.582C271.244,466.913,268.65,464.68,265.592,464.68z M263.432,471.194
					c-1.02,0-1.85-0.83-1.85-1.85c0-1.02,0.83-1.85,1.85-1.85c1.02,0,1.85,0.83,1.85,1.85
					C265.282,470.365,264.452,471.194,263.432,471.194z M268.17,470.286c-0.75,0-1.36-0.61-1.36-1.36s0.61-1.361,1.36-1.361
					c0.75,0,1.361,0.61,1.361,1.361S268.92,470.286,268.17,470.286z"/>
			</g>
			<path id="XMLID_1041_" style="fill:#F9FBFC;" d="M281.595,466.547c-0.295-0.116-0.805-0.309-1.382-0.237
				c-0.551,0.069-0.844,0.341-0.844,1.007v0.866h2.228v1.717h-2.228v5.455h-1.932v-5.455h-1.34v-1.717h1.34v-0.888
				c0-1.68,0.896-2.783,2.568-2.783c0.643,0,1.157,0.122,1.59,0.308L281.595,466.547z"/>
			<path id="XMLID_1039_" style="fill:#F9FBFC;" d="M286.298,469.879c-0.177-0.03-0.358-0.046-0.526-0.046
				c-0.896,0-1.51,0.548-1.51,1.614v3.908h-1.932v-7.172h1.873v0.785c0.451-0.673,1.14-0.977,2.021-0.977
				c0.414,0,0.848,0.128,1.094,0.337L286.298,469.879z"/>
			<path id="XMLID_88_" style="fill:#F9FBFC;" d="M293.965,471.757c0,0.222-0.015,0.489-0.037,0.651h-5.085
				c0.207,1.036,0.933,1.488,1.843,1.488c0.622,0,1.295-0.252,1.813-0.688l1.133,1.243c-0.814,0.748-1.85,1.088-3.057,1.088
				c-2.198,0-3.723-1.495-3.723-3.753c0-2.258,1.48-3.797,3.627-3.797C292.544,467.99,293.958,469.522,293.965,471.757z
				 M288.851,471.091h3.175c-0.177-0.918-0.733-1.436-1.562-1.436C289.554,469.655,289.021,470.203,288.851,471.091z"/>
			<path id="XMLID_85_" style="fill:#F9FBFC;" d="M301.618,471.757c0,0.222-0.015,0.489-0.037,0.651h-5.085
				c0.207,1.036,0.933,1.488,1.843,1.488c0.622,0,1.295-0.252,1.814-0.688l1.132,1.243c-0.814,0.748-1.85,1.088-3.057,1.088
				c-2.198,0-3.723-1.495-3.723-3.753c0-2.258,1.48-3.797,3.627-3.797C300.197,467.99,301.611,469.522,301.618,471.757z
				 M296.504,471.091h3.175c-0.178-0.918-0.733-1.436-1.562-1.436C297.207,469.655,296.674,470.203,296.504,471.091z"/>
			<path id="XMLID_62_" style="fill:#F9FBFC;" d="M309.964,471.764c0,2.154-1.495,3.775-3.471,3.775
				c-0.962,0-1.643-0.378-2.109-0.933v3.708h-1.924v-10.133h1.887v0.792c0.466-0.585,1.155-0.984,2.139-0.984
				C308.469,467.99,309.964,469.61,309.964,471.764z M304.287,471.764c0,1.132,0.747,1.976,1.843,1.976
				c1.14,0,1.85-0.881,1.85-1.976c0-1.095-0.71-1.976-1.85-1.976C305.035,469.788,304.287,470.632,304.287,471.764z"/>
			<path id="XMLID_9_" style="fill:#F9FBFC;" d="M313.068,465.836c0,0.696-0.54,1.229-1.236,1.229c-0.696,0-1.229-0.533-1.229-1.229
				c0-0.696,0.533-1.243,1.229-1.243C312.527,464.592,313.068,465.14,313.068,465.836z M312.809,475.354h-1.932v-7.172h1.932
				V475.354z"/>
			<path id="XMLID_3_" style="fill:#F9FBFC;" d="M316.032,470.736l2.701-2.554h2.368l-3.479,3.375l3.501,3.797h-2.376l-2.716-2.901
				v2.901H314.1v-10.658h1.932V470.736z"/>
		</g>
		<g>
			<path style="fill:#F9FBFC;" d="M184.412,475.289v-1.055c-0.527,0.718-1.391,1.23-2.387,1.23c-1.846,0-3.149-1.406-3.149-3.706
				c0-2.256,1.289-3.721,3.149-3.721c0.952,0,1.816,0.469,2.387,1.245v-3.765h1.099v9.77H184.412z M184.412,473.37v-3.208
				c-0.395-0.615-1.245-1.143-2.124-1.143c-1.421,0-2.27,1.172-2.27,2.739c0,1.567,0.85,2.724,2.27,2.724
				C183.168,474.483,184.017,473.986,184.412,473.37z"/>
			<path style="fill:#F9FBFC;" d="M186.932,471.744c0-2.051,1.465-3.706,3.486-3.706c2.139,0,3.398,1.67,3.398,3.794v0.279h-5.727
				c0.088,1.333,1.025,2.446,2.549,2.446c0.806,0,1.626-0.322,2.182-0.894l0.527,0.718c-0.703,0.703-1.655,1.084-2.812,1.084
				C188.441,475.465,186.932,473.956,186.932,471.744z M190.404,468.947c-1.509,0-2.256,1.274-2.314,2.358h4.643
				C192.718,470.25,192.015,468.947,190.404,468.947z"/>
			<path style="fill:#F9FBFC;" d="M194.607,474.351l0.571-0.791c0.469,0.542,1.362,1.011,2.329,1.011c1.084,0,1.67-0.513,1.67-1.216
				c0-1.714-4.38-0.659-4.38-3.281c0-1.098,0.952-2.036,2.636-2.036c1.201,0,2.051,0.454,2.622,1.026l-0.513,0.762
				c-0.424-0.513-1.201-0.894-2.109-0.894c-0.967,0-1.567,0.483-1.567,1.113c0,1.552,4.38,0.527,4.38,3.281
				c0,1.187-0.952,2.138-2.783,2.138C196.306,475.465,195.325,475.113,194.607,474.351z"/>
			<path style="fill:#F9FBFC;" d="M201.477,466.471c0-0.41,0.337-0.747,0.732-0.747c0.41,0,0.747,0.337,0.747,0.747
				c0,0.41-0.337,0.732-0.747,0.732C201.814,467.203,201.477,466.881,201.477,466.471z M201.667,475.289v-7.075h1.099v7.075H201.667
				z"/>
			<path style="fill:#F9FBFC;" d="M204.582,477.105l0.556-0.82c0.586,0.703,1.289,0.967,2.3,0.967c1.172,0,2.27-0.571,2.27-2.124
				v-1.011c-0.513,0.718-1.377,1.26-2.373,1.26c-1.845,0-3.149-1.377-3.149-3.662c0-2.27,1.289-3.677,3.149-3.677
				c0.952,0,1.802,0.469,2.373,1.245v-1.069h1.098v6.87c0,2.344-1.641,3.076-3.369,3.076
				C206.237,478.16,205.417,477.926,204.582,477.105z M209.709,473.253v-3.091c-0.381-0.615-1.23-1.143-2.109-1.143
				c-1.421,0-2.27,1.128-2.27,2.695c0,1.553,0.849,2.695,2.27,2.695C208.478,474.41,209.328,473.868,209.709,473.253z"/>
			<path style="fill:#F9FBFC;" d="M217.413,475.289v-4.629c0-1.245-0.63-1.641-1.582-1.641c-0.864,0-1.685,0.527-2.095,1.099v5.17
				h-1.099v-7.075h1.099v1.025c0.498-0.586,1.464-1.201,2.519-1.201c1.48,0,2.256,0.747,2.256,2.285v4.966H217.413z"/>
			<path style="fill:#F9FBFC;" d="M219.932,471.744c0-2.051,1.465-3.706,3.486-3.706c2.139,0,3.398,1.67,3.398,3.794v0.279h-5.727
				c0.088,1.333,1.025,2.446,2.549,2.446c0.806,0,1.626-0.322,2.183-0.894l0.527,0.718c-0.703,0.703-1.655,1.084-2.812,1.084
				C221.441,475.465,219.932,473.956,219.932,471.744z M223.404,468.947c-1.509,0-2.256,1.274-2.314,2.358h4.643
				C225.718,470.25,225.015,468.947,223.404,468.947z"/>
			<path style="fill:#F9FBFC;" d="M233.35,475.289v-1.055c-0.527,0.718-1.392,1.23-2.388,1.23c-1.846,0-3.149-1.406-3.149-3.706
				c0-2.256,1.289-3.721,3.149-3.721c0.952,0,1.817,0.469,2.388,1.245v-3.765h1.098v9.77H233.35z M233.35,473.37v-3.208
				c-0.396-0.615-1.245-1.143-2.124-1.143c-1.421,0-2.27,1.172-2.27,2.739c0,1.567,0.849,2.724,2.27,2.724
				C232.105,474.483,232.954,473.986,233.35,473.37z"/>
			<path style="fill:#F9FBFC;" d="M239.692,475.289v-9.77h1.098v3.765c0.572-0.776,1.421-1.245,2.388-1.245
				c1.845,0,3.149,1.465,3.149,3.721c0,2.299-1.304,3.706-3.149,3.706c-0.996,0-1.86-0.513-2.388-1.23v1.055H239.692z
				 M242.9,474.483c1.436,0,2.286-1.157,2.286-2.724c0-1.568-0.85-2.739-2.286-2.739c-0.864,0-1.728,0.527-2.109,1.143v3.208
				C241.171,473.986,242.036,474.483,242.9,474.483z"/>
			<path style="fill:#F9FBFC;" d="M247.529,477.061c0.161,0.073,0.425,0.117,0.601,0.117c0.483,0,0.805-0.161,1.055-0.747
				l0.469-1.069l-2.959-7.148h1.187l2.358,5.8l2.344-5.8h1.201l-3.545,8.51c-0.425,1.025-1.143,1.421-2.08,1.435
				c-0.234,0-0.601-0.044-0.805-0.103L247.529,477.061z"/>
		</g>
	</g>
</g>
</svg>
